<svg width="170" height="52" viewBox="0 0 170 52" fill="none" xmlns="http://www.w3.org/2000/svg">
<g clip-path="url(#clip0)">
<path d="M79.5386 15.2025C76.5927 13.4929 72.9367 13.4929 69.9908 15.2025H69.9645C68.0445 16.3072 66.8608 18.3851 66.8608 20.5945V24.724C66.8608 26.9334 68.0445 29.0113 69.9645 30.116L69.9908 30.1423C71.4638 30.984 73.0945 31.4049 74.7516 31.4049C76.4086 31.4049 78.0394 30.984 79.5123 30.1423L79.5386 30.116C81.4587 29.0113 82.6423 26.9334 82.6423 24.724V20.5945C82.6423 18.3588 81.4587 16.3072 79.5386 15.2025ZM78.7495 24.6977C78.7495 25.5131 78.3024 26.3022 77.5922 26.723L77.5659 26.7493C75.83 27.7488 73.6732 27.7488 71.9635 26.7493L71.9372 26.723C71.227 26.3022 70.7799 25.5394 70.7799 24.6977V20.5945C70.7799 19.7792 71.227 18.9901 71.9372 18.5693H71.9635C72.8315 18.0695 73.8047 17.8065 74.7779 17.8065C75.7511 17.8065 76.7243 18.0695 77.5922 18.5693L77.6185 18.5956C78.3287 19.0164 78.7759 19.7792 78.7759 20.6208V24.6977H78.7495Z" fill="black"/>
<path d="M114.495 15.2029L114.468 15.1766C111.523 13.4932 107.893 13.4932 104.947 15.1766H104.921C103.001 16.2813 101.817 18.3592 101.817 20.5686V24.6981C101.817 26.9075 103.001 28.9854 104.921 30.0901L104.947 30.1164C106.42 30.9581 108.051 31.3789 109.708 31.3789C111.365 31.3789 112.995 30.9581 114.468 30.1164H114.495C115.81 29.3536 116.809 28.1437 117.283 26.6971L113.574 25.4609C113.39 25.9869 113.022 26.4603 112.522 26.7497H112.496C110.76 27.7492 108.603 27.7492 106.893 26.7497L106.867 26.7234C106.157 26.3025 105.71 25.5398 105.71 24.6981V24.3824H117.598V20.5949C117.598 18.3592 116.388 16.3076 114.495 15.2029ZM105.71 20.4897C105.736 19.7006 106.183 18.9904 106.867 18.5696H106.893C108.629 17.5701 110.786 17.5701 112.496 18.5696L112.522 18.5959C113.206 18.9904 113.653 19.7269 113.679 20.516H105.71V20.4897Z" fill="black"/>
<path d="M166.311 15.2027C163.365 13.493 159.709 13.493 156.763 15.1764L156.737 15.2027C154.816 16.3074 153.633 18.3853 153.633 20.5947V24.7242C153.633 26.9336 154.816 29.0115 156.737 30.1162L156.763 30.1425C158.236 30.9842 159.866 31.405 161.524 31.405C163.181 31.405 164.811 30.9842 166.284 30.1425L166.311 30.1162C168.231 29.0115 169.414 26.9336 169.414 24.7242V20.5947C169.441 18.359 168.231 16.3074 166.311 15.2027ZM165.548 24.6979C165.548 25.5132 165.101 26.3023 164.391 26.7232L164.364 26.7495C162.628 27.749 160.471 27.749 158.762 26.7495L158.735 26.7232C158.025 26.3023 157.578 25.5395 157.578 24.6979V20.5947C157.578 19.7793 158.025 18.9902 158.735 18.5694L158.762 18.5431C159.63 18.0433 160.603 17.7803 161.576 17.7803C162.549 17.7803 163.523 18.0433 164.391 18.5431L164.417 18.5694C165.127 18.9902 165.574 19.753 165.574 20.5947V24.6979H165.548Z" fill="black"/>
<path d="M61.1795 7.86452L60.9165 7.70671C57.8654 5.94444 54.0516 5.94444 51.0005 7.70671L50.7374 7.86452C48.6859 9.04814 47.4233 11.2575 47.4233 13.5985V13.8089V18.254V30.9844H51.3161V24.3299C52.7627 25.0926 54.3672 25.4872 55.9716 25.4872C57.6813 25.4872 59.391 25.04 60.9428 24.1721L61.2058 24.0142C63.2574 22.8306 64.52 20.6212 64.52 18.2803V13.6248C64.4936 11.2575 63.2311 9.04814 61.1795 7.86452ZM60.6009 18.254C60.6009 19.2272 60.0748 20.1215 59.2332 20.6212L58.9701 20.779C57.1026 21.8574 54.8143 21.8574 52.9469 20.779L52.6838 20.6212C51.8422 20.1215 51.3161 19.2272 51.3161 18.254V13.8352V13.6248C51.3161 12.6516 51.8422 11.7573 52.6838 11.2575L52.9469 11.0997C53.8674 10.5737 54.9195 10.2844 55.9453 10.2844C56.9974 10.2844 58.0232 10.5474 58.9438 11.0997L59.2069 11.2575C60.0485 11.7573 60.5746 12.6516 60.5746 13.6248V18.254H60.6009Z" fill="black"/>
<path d="M143.769 14.2031C141.323 15.5972 139.824 18.2274 139.824 21.0418V30.9315H143.717V21.0418C143.717 19.6215 144.48 18.3063 145.716 17.5962C146.952 16.886 148.478 16.886 149.714 17.5962L150.818 18.2274L152.765 14.8607L151.66 14.2294C149.24 12.8091 146.215 12.8091 143.769 14.2031Z" fill="black"/>
<path d="M89.8229 26.355V6.20728H85.9302V26.355C85.9302 28.9326 88.0344 31.0368 90.612 31.0368H91.6378V27.1441H90.612C90.1649 27.1178 89.8229 26.7758 89.8229 26.355Z" fill="black"/>
<path d="M98.7395 13.4404H94.8467V31.1157H98.7395V13.4404Z" fill="black"/>
<path d="M132.512 14.8081C129.724 13.5193 126.436 13.6245 123.753 15.1764H123.727C121.807 16.2811 120.623 18.359 120.623 20.5684V24.6979C120.623 26.9073 121.807 28.9852 123.727 30.0899L123.753 30.1162C125.226 30.9579 126.857 31.3787 128.514 31.3787C130.171 31.3787 131.802 30.9579 133.275 30.1162H133.301C135.221 29.0115 136.405 26.9336 136.405 24.7242V20.5947C136.405 20.4369 136.378 20.2791 136.378 20.1475H136.405V6.33875H132.512V14.8081ZM132.512 24.6979C132.512 25.5132 132.065 26.3023 131.355 26.7232H131.328C129.592 27.7227 127.435 27.7227 125.726 26.7232L125.7 26.6969C124.989 26.276 124.542 25.5132 124.542 24.6716V20.5947C124.542 19.7793 124.989 18.9902 125.7 18.5694H125.726C126.594 18.0696 127.567 17.8066 128.54 17.8066C129.513 17.8066 130.487 18.0433 131.328 18.5431L131.355 18.5694C132.065 18.9902 132.512 19.753 132.512 20.5947V24.6979Z" fill="black"/>
<path d="M96.8984 6.20728C96.1882 6.20728 95.5306 6.57551 95.1624 7.20677C94.7942 7.81173 94.7942 8.5745 95.1624 9.20576C95.5306 9.81072 96.1619 10.2053 96.8984 10.2053C97.6086 10.2053 98.2661 9.83702 98.6344 9.20576C99.0026 8.6008 99.0026 7.83803 98.6344 7.20677C98.2661 6.57551 97.6086 6.20728 96.8984 6.20728Z" fill="black"/>
<path d="M88.1133 42.8993C88.1133 40.3743 88.9024 38.1385 92.4006 38.1385C95.478 38.1385 96.609 39.8219 96.609 41.742H94.5048C94.3733 40.611 93.8735 39.8482 92.4006 39.8482C90.5068 39.8482 90.1912 41.1896 90.1912 42.8993C90.1912 44.609 90.5331 45.9504 92.4006 45.9504C93.8735 45.9504 94.347 45.1876 94.5048 44.0303H96.609C96.609 46.0556 95.5043 47.66 92.4006 47.66C88.876 47.6337 88.1133 45.4243 88.1133 42.8993Z" fill="#FAA41F"/>
<path d="M98.424 44.1092V40.1112H100.397V44.2933C100.397 45.3454 100.581 45.9767 101.817 45.9767C103.053 45.9767 103.343 45.3454 103.343 44.2933V40.1112H105.315V47.5285H104.5L104.053 46.3975C103.553 47.1603 102.843 47.66 101.238 47.66C98.9237 47.6337 98.424 46.1871 98.424 44.1092Z" fill="#FAA41F"/>
<path d="M107.524 40.1113H108.34L108.813 41.2949C109.313 40.5584 110.049 39.9009 111.522 40.0324V41.8209C109.813 41.6368 109.497 42.5837 109.497 43.6095V47.5286H107.524V40.1113Z" fill="#FAA41F"/>
<path d="M112.601 44.9245H114.547C114.547 45.6873 115.152 46.1082 116.204 46.1082C117.125 46.1082 117.625 45.7925 117.625 45.3454C117.625 43.9777 112.759 44.9508 112.759 42.3469C112.759 40.7951 113.942 40.006 116.047 40.006C118.23 40.006 119.334 40.9003 119.334 42.6362H117.493C117.414 41.8472 117.046 41.5315 115.994 41.5315C114.994 41.5315 114.679 41.8998 114.679 42.268C114.679 43.5831 119.545 42.4784 119.545 45.2928C119.545 46.7131 118.203 47.66 116.204 47.66C113.811 47.6337 112.601 46.7394 112.601 44.9245Z" fill="#FAA41F"/>
<path d="M120.965 43.7936C120.965 41.8472 121.78 39.9797 124.647 39.9797C127.488 39.9797 128.33 41.8209 128.33 43.7936C128.33 45.7926 127.488 47.6338 124.621 47.6338C121.754 47.6338 120.965 45.7663 120.965 43.7936ZM126.383 43.7936C126.383 42.61 126.041 41.6631 124.647 41.6631C123.28 41.6631 122.911 42.5837 122.911 43.7936C122.911 45.0298 123.28 45.9241 124.621 45.9241C125.989 45.9504 126.383 45.0561 126.383 43.7936Z" fill="#FAA41F"/>
<path d="M15.4132 19.9108L33.5619 8.96899L18.9115 0.499593C17.7542 -0.184272 16.3075 -0.184272 15.1239 0.499593L0.683848 8.94269C-0.236738 9.49504 -0.236738 10.8365 0.683848 11.3625L15.4132 19.9108Z" fill="#1FB4C3"/>
<path d="M2.1042 22.7779L15.7026 30.6424C16.5706 31.1421 17.0966 32.0627 17.0966 33.0622V50.5796C17.0966 51.658 15.9393 52.3419 14.9924 51.7895L1.39403 43.9514C0.52605 43.4517 0 42.5311 0 41.5316V23.9878C0 22.9094 1.15731 22.2519 2.1042 22.7779Z" fill="#FAA41F"/>
<path d="M33.5619 8.96912L15.4132 19.9109C16.4653 20.5159 17.1229 21.6469 17.1229 22.8568V41.9261L33.5882 32.4309C34.7455 31.7471 35.482 30.5108 35.482 29.1431V12.2306C35.4557 10.8892 34.7455 9.62668 33.5619 8.96912Z" fill="#EE2252"/>
</g>
<defs>
<clipPath id="clip0">
<rect width="169.441" height="52" fill="white"/>
</clipPath>
</defs>
</svg>
